<?xml version="1.0" standalone="no"?>
<!DOCTYPE svg PUBLIC "-//W3C//DTD SVG 20010904//EN"
 "http://www.w3.org/TR/2001/REC-SVG-20010904/DTD/svg10.dtd">
<svg version="1.0" xmlns="http://www.w3.org/2000/svg"
 width="227.000000pt" height="227.000000pt" viewBox="0 0 227.000000 227.000000"
 preserveAspectRatio="xMidYMid meet">
<metadata>
Created by potrace 1.11, written by Peter Selinger 2001-2013
</metadata>
<g transform="translate(0.000000,227.000000) scale(0.100000,-0.100000)"
fill="#000000" stroke="none">
<path d="M1053 1970 c-340 -36 -620 -288 -697 -628 -20 -89 -21 -258 -1 -350
33 -160 114 -302 237 -418 161 -152 322 -218 570 -231 174 -10 326 25 493 110
103 53 169 119 222 223 95 182 135 371 114 534 -18 139 -27 148 -34 34 -11
-159 -52 -290 -133 -421 -42 -67 -88 -108 -171 -152 -38 -20 -43 -14 -43 52 0
90 -20 123 -107 175 -64 38 -73 47 -73 73 0 16 -4 29 -10 29 -5 0 -10 -13 -10
-28 0 -31 -13 -46 -74 -82 -31 -19 -40 -20 -47 -9 -13 20 -11 124 2 153 9 19
9 29 0 40 -15 17 -14 375 1 394 7 8 7 12 0 12 -5 0 -13 11 -16 25 -3 13 -16
30 -28 36 -19 10 -25 8 -45 -15 -13 -15 -23 -32 -23 -39 -1 -7 -2 -100 -3
-207 -2 -149 -6 -200 -17 -217 -11 -17 -11 -24 -1 -37 18 -21 4 -125 -18 -134
-9 -3 -21 -13 -28 -21 -10 -14 -13 -13 -22 9 -9 24 -10 24 -10 3 -1 -13 -6
-23 -12 -23 -7 0 -9 12 -6 33 6 40 -7 74 -41 110 l-26 27 -33 -32 -32 -31 6
50 c9 84 -2 119 -60 176 -29 29 -69 65 -89 80 -29 22 -38 35 -38 58 0 17 -4
28 -9 25 -5 -3 -7 -16 -3 -28 4 -17 -4 -30 -38 -59 -24 -21 -48 -35 -53 -32
-14 9 3 169 25 243 67 220 226 390 430 461 109 37 98 44 -49 29z"/>
<path d="M1085 920 c-3 -5 -1 -10 4 -10 6 0 11 5 11 10 0 6 -2 10 -4 10 -3 0
-8 -4 -11 -10z"/>
</g>
</svg>
